<?xml version="1.0" encoding="utf-8"?>
<!-- Generator: Adobe Illustrator 18.1.1, SVG Export Plug-In . SVG Version: 6.00 Build 0)  -->
<svg version="1.1" xmlns="http://www.w3.org/2000/svg" xmlns:xlink="http://www.w3.org/1999/xlink" x="0px" y="0px"
	 viewBox="0 0 280 280" enable-background="new 0 0 280 280" xml:space="preserve">
<g id="Layer_1">
	<path fill-rule="evenodd" clip-rule="evenodd" fill="#E8DED1" d="M139.9,36.8C196.8,36.8,243,83,243,139.9
		c0,56.9-46.2,103.1-103.1,103.1S36.8,196.8,36.8,139.9C36.8,83,83,36.8,139.9,36.8L139.9,36.8z"/>
	<path fill-rule="evenodd" clip-rule="evenodd" fill="#DCCCBE" d="M136.8,36.9v206.1c-55.5-1.7-100-47.1-100-103
		C36.8,84,81.3,38.5,136.8,36.9L136.8,36.9z"/>
	<path fill-rule="evenodd" clip-rule="evenodd" fill="#E96C3B" d="M119.9,241.1l-17.7-19.6l-2.6,13.4
		C106.1,237.6,112.9,239.7,119.9,241.1L119.9,241.1z"/>
	<path fill-rule="evenodd" clip-rule="evenodd" fill="#F47F51" d="M156.2,241.7l13.1-20.7l3.7,16.5
		C167.6,239.4,162,240.8,156.2,241.7L156.2,241.7z"/>
	<polygon fill-rule="evenodd" clip-rule="evenodd" fill="#FFDEB2" points="125.1,185.9 123.1,205.9 135.6,242.9 136,242.9 
		150.1,205.1 148.1,185.9 125.1,185.9 	"/>
	<polygon fill-rule="evenodd" clip-rule="evenodd" fill="#F7D19C" points="125.1,185.9 123.1,205.9 133.5,236.7 136.2,236.7 
		136.2,185.9 125.1,185.9 	"/>
	<path fill-rule="evenodd" clip-rule="evenodd" fill="#E96C3B" d="M103,221.7l17.1-15.2l16,24.1l12.3-24.2l6,0.1l15.8,14.5
		l-4.6,18.7c-8.2,2.1-16.8,3.2-25.6,3.2c-11.5,0-22.6-1.9-32.9-5.4L103,221.7L103,221.7z"/>
	<path fill-rule="evenodd" clip-rule="evenodd" fill="#E24929" d="M102.4,221.7l17.1-15.2l7.3,0.3l9.4,22.8v13.3
		c-10.4-0.4-20.4-2.3-29.7-5.5L102.4,221.7L102.4,221.7z"/>
	<path fill-rule="evenodd" clip-rule="evenodd" fill="#FFDEB2" d="M122.2,84H152c14.7,0,26.6,12,26.6,26.6v54.8
		c0,14.7-12,26.6-26.6,26.6h-29.8c-14.7,0-26.6-12-26.6-26.6v-54.8C95.5,96,107.5,84,122.2,84L122.2,84z"/>
	<path fill-rule="evenodd" clip-rule="evenodd" fill="#FFDEB2" d="M122.2,84h14.1v108.1h-14.1c-14.7,0-26.6-12-26.6-26.6v-54.8
		C95.5,96,107.5,84,122.2,84L122.2,84z"/>
	<path fill-rule="evenodd" clip-rule="evenodd" fill="#F7D19C" d="M122.2,84h14.1v108.1h-14.1c-14.7,0-26.6-12-26.6-26.6v-54.8
		C95.5,96,107.5,84,122.2,84L122.2,84z"/>
	<path fill-rule="evenodd" clip-rule="evenodd" fill="#623C1D" d="M116.1,145.8c2.2,0,4-1.8,4-4c0-2.2-1.8-4-4-4c-2.2,0-4,1.8-4,4
		C112.1,143.9,113.9,145.8,116.1,145.8L116.1,145.8z"/>
	<path fill-rule="evenodd" clip-rule="evenodd" fill="#623C1D" d="M158.1,145.8c2.2,0,4-1.8,4-4c0-2.2-1.8-4-4-4c-2.2,0-4,1.8-4,4
		C154,143.9,155.8,145.8,158.1,145.8L158.1,145.8z"/>
	<path fill-rule="evenodd" clip-rule="evenodd" fill="#623C1D" d="M121.2,81.5H153c15.6,0,28.3,12.6,28.3,27.9v26.8h-21.1l-5-16.7
		l-0.3,16.7H92.9v-26.8C92.9,94,105.7,81.5,121.2,81.5L121.2,81.5z"/>
	<path fill-rule="evenodd" clip-rule="evenodd" fill="#623C1D" d="M92.3,108.9c5.5,0,9.9-4.4,9.9-9.9c0-5.5-4.4-9.9-9.9-9.9
		c-5.5,0-9.9,4.4-9.9,9.9C82.4,104.4,86.8,108.9,92.3,108.9L92.3,108.9z"/>
	<path fill-rule="evenodd" clip-rule="evenodd" fill="#623C1D" d="M181.9,108.9c5.5,0,9.9-4.4,9.9-9.9c0-5.5-4.4-9.9-9.9-9.9
		c-5.5,0-9.9,4.4-9.9,9.9C172,104.4,176.4,108.9,181.9,108.9L181.9,108.9z"/>
</g>
<g id="Layer_2">
</g>
</svg>
