<?xml version="1.0" encoding="utf-8"?>
<!-- Generator: Adobe Illustrator 18.1.1, SVG Export Plug-In . SVG Version: 6.00 Build 0)  -->
<svg version="1.1" id="Layer_1" xmlns="http://www.w3.org/2000/svg" xmlns:xlink="http://www.w3.org/1999/xlink" x="0px" y="0px"
	 viewBox="0 0 280 280" enable-background="new 0 0 280 280" xml:space="preserve">
<g id="Layer_2">
</g>
<path fill-rule="evenodd" clip-rule="evenodd" fill="#E8DED1" d="M139.5,37C196.7,37,243,83.3,243,140.5
	c0,57.2-46.3,103.5-103.5,103.5S36,197.7,36,140.5C36,83.3,82.3,37,139.5,37L139.5,37z"/>
<path fill-rule="evenodd" clip-rule="evenodd" fill="#DBCCBD" d="M136.4,37.1v206.9C80.7,242.3,36,196.6,36,140.5
	C36,84.4,80.7,38.7,136.4,37.1L136.4,37.1z"/>
<path fill-rule="evenodd" clip-rule="evenodd" fill="#85C2D1" d="M80.4,93.1c7.4,0,13.4-6,13.4-13.3c0-7.4-6-13.3-13.4-13.3
	s-13.3,6-13.3,13.3C67.1,87.1,73.1,93.1,80.4,93.1L80.4,93.1z"/>
<path fill-rule="evenodd" clip-rule="evenodd" fill="#85C2D1" d="M198.6,93.1c7.4,0,13.3-6,13.3-13.3c0-7.4-6-13.3-13.3-13.3
	c-7.4,0-13.4,6-13.4,13.3C185.2,87.1,191.2,93.1,198.6,93.1L198.6,93.1z"/>
<polygon fill-rule="evenodd" clip-rule="evenodd" fill="#FFDEB2" points="132,191.8 146.4,191.8 146.4,162.5 132,162.5 132,191.8 
	"/>
<path fill-rule="evenodd" clip-rule="evenodd" fill="#FFDEB2" d="M126.7,68.4h25.5c21.7,0,39.5,17.8,39.5,39.5v33.2
	c0,21.7-17.8,39.5-39.5,39.5h-25.5c-21.7,0-39.5-17.8-39.5-39.5v-33.2C87.3,86.1,105,68.4,126.7,68.4L126.7,68.4z"/>
<path fill-rule="evenodd" clip-rule="evenodd" fill="#FFCF00" d="M184.8,233.6v-26.3c0-4.1-3.3-7.5-7.3-7.7l-30.7-9.4h-14.6
	l-32.1,9.4c-4.1,0.2-7.3,3.6-7.3,7.7v25.5c4.9,2.5,10.1,4.6,15.5,6.3v-14.1h2.7V240c9.1,2.6,18.6,4,28.5,4c9.4,0,18.4-1.2,27-3.6
	v-15.3h2.7v14.6C174.6,238,179.8,236,184.8,233.6L184.8,233.6z"/>
<path fill-rule="evenodd" clip-rule="evenodd" fill="#613B1C" d="M116.1,126.2c2.4,0,4.4,2,4.4,4.4s-2,4.4-4.4,4.4
	c-2.4,0-4.4-2-4.4-4.4S113.7,126.2,116.1,126.2L116.1,126.2z"/>
<path fill-rule="evenodd" clip-rule="evenodd" fill="#613B1C" d="M162.9,126.2c2.4,0,4.4,2,4.4,4.4s-2,4.4-4.4,4.4
	c-2.4,0-4.4-2-4.4-4.4S160.4,126.2,162.9,126.2L162.9,126.2z"/>
<path fill="#613B1C" d="M127.4,149.3c0.3-0.3,0.7-0.3,1,0c0.3,0.3,0.3,0.7,0,1c-1.5,1.6-1.8,3.3-1.2,4.6h0c0.3,0.7,0.8,1.3,1.5,1.8
	c0.7,0.5,1.6,0.7,2.5,0.8c2.3,0.1,5.2-1.4,7.5-5.3l0.7-1.2l0.5,1.2c1.7,3.8,4.4,5.3,6.9,5.3c1.3,0,2.5-0.3,3.4-0.9
	c0.9-0.6,1.5-1.4,1.8-2.3c0.3-1.2-0.2-2.6-1.9-4c-0.3-0.2-0.3-0.7-0.1-1c0.2-0.3,0.7-0.3,1-0.1c2.2,1.8,2.8,3.7,2.4,5.3
	c-0.3,1.2-1.2,2.3-2.4,3.1c-1.1,0.7-2.6,1.2-4.2,1.1c-2.7,0-5.6-1.4-7.6-5c-2.4,3.6-5.5,5-8,4.9c-1.2,0-2.3-0.4-3.3-1
	c-0.9-0.6-1.6-1.4-2-2.4l0,0C125.2,153.5,125.5,151.3,127.4,149.3L127.4,149.3z"/>
<path fill-rule="evenodd" clip-rule="evenodd" fill="#E84D3D" d="M113.4,146.7c3.8,0,6.9-1.6,6.9-3.5c0-1.9-3.1-3.5-6.9-3.5
	c-3.8,0-6.9,1.6-6.9,3.5C106.5,145.2,109.6,146.7,113.4,146.7L113.4,146.7z"/>
<path fill-rule="evenodd" clip-rule="evenodd" fill="#E84D3D" d="M165.6,146.7c3.8,0,6.9-1.6,6.9-3.5c0-1.9-3.1-3.5-6.9-3.5
	c-3.8,0-6.9,1.6-6.9,3.5C158.6,145.2,161.7,146.7,165.6,146.7L165.6,146.7z"/>
<path fill-rule="evenodd" clip-rule="evenodd" fill="#85C2D1" d="M191.7,117.9h-0.7v4.3H87.3v-14.3c0-21.7,17.8-39.5,39.5-39.5h25.5
	c21.7,0,39.5,17.8,39.5,39.5V117.9L191.7,117.9z"/>
</svg>
