<?xml version="1.0" encoding="utf-8"?>
<!-- Generator: Adobe Illustrator 18.1.1, SVG Export Plug-In . SVG Version: 6.00 Build 0)  -->
<svg version="1.1" xmlns="http://www.w3.org/2000/svg" xmlns:xlink="http://www.w3.org/1999/xlink" x="0px" y="0px"
	 viewBox="0 0 280 280" enable-background="new 0 0 280 280" xml:space="preserve">
<g id="Layer_1">
	<path fill-rule="evenodd" clip-rule="evenodd" fill="#E8DED1" d="M139.6,36.1c57.1,0,103.4,46.3,103.4,103.4
		c0,57.1-46.3,103.4-103.4,103.4c-57.1,0-103.4-46.3-103.4-103.4C36.1,82.4,82.4,36.1,139.6,36.1L139.6,36.1z"/>
	<path fill-rule="evenodd" clip-rule="evenodd" fill="#DCCCBE" d="M136.4,36.2v206.8c-55.7-1.7-100.3-47.3-100.3-103.4
		S80.8,37.9,136.4,36.2L136.4,36.2z"/>
	<polygon fill-rule="evenodd" clip-rule="evenodd" fill="#FFDEB2" points="130,169.1 150.4,169.1 150.4,127.5 130,127.5 130,169.1 	
		"/>
	<path fill-rule="evenodd" clip-rule="evenodd" fill="#FFDEB2" d="M113.9,57.5h52.6c5.6,0,10.2,4.6,10.2,10.2v74.5
		c0,5.6-4.6,10.2-10.2,10.2h-52.6c-5.6,0-10.2-4.6-10.2-10.2V67.6C103.7,62,108.3,57.5,113.9,57.5L113.9,57.5z"/>
	<path fill-rule="evenodd" clip-rule="evenodd" fill="#623C1D" d="M121.8,111.7c2,0,3.5-1.6,3.5-3.5s-1.6-3.5-3.5-3.5
		c-2,0-3.5,1.6-3.5,3.5S119.9,111.7,121.8,111.7L121.8,111.7z"/>
	<path fill-rule="evenodd" clip-rule="evenodd" fill="#623C1D" d="M158.6,111.7c2,0,3.5-1.6,3.5-3.5s-1.6-3.5-3.5-3.5
		c-2,0-3.5,1.6-3.5,3.5S156.6,111.7,158.6,111.7L158.6,111.7z"/>
	<path fill-rule="evenodd" clip-rule="evenodd" fill="#E74E3D" d="M204.8,219.9V191c0-5.8-4.6-10.6-10.4-11l-43.5-13.2h-20.7
		l-45.5,13.2c-5.8,0.3-10.4,5.1-10.4,11v28.8c6.7,5.4,14,10,21.9,13.7v-17.3h3.9v19c12.1,5,25.4,7.8,39.4,7.8
		c13.9,0,27.2-2.8,39.4-7.8v-19h3.9v17.3C190.7,229.9,198.1,225.3,204.8,219.9L204.8,219.9z"/>
	<path fill="#623C1D" d="M112.4,96.3h18.5c1.8,0,3.5,0.8,4.6,2.1c1.2,1.3,1.9,3,1.9,5v11.6c0,1.9-0.7,3.7-1.9,5v0
		c-1.2,1.3-2.8,2.1-4.6,2.1h-18.5c-1.8,0-3.4-0.8-4.6-2.1l0,0c-1.2-1.3-1.9-3-1.9-5v-11.6c0-1.9,0.7-3.7,1.9-5h0
		C109,97.1,110.6,96.3,112.4,96.3L112.4,96.3z M130.9,102.2h-18.5c-0.3,0-0.6,0.1-0.8,0.3l0,0c-0.2,0.2-0.3,0.5-0.3,0.8v11.6
		c0,0.3,0.1,0.6,0.3,0.9l0,0c0.2,0.2,0.5,0.3,0.8,0.3h18.5c0.3,0,0.6-0.1,0.8-0.4l0,0c0.2-0.2,0.3-0.5,0.3-0.9v-11.6
		c0-0.3-0.1-0.6-0.3-0.8C131.5,102.3,131.2,102.2,130.9,102.2L130.9,102.2z"/>
	<path fill-rule="evenodd" clip-rule="evenodd" fill="#623C1D" d="M130.8,129.7h6.6c0.9,0,1.7-0.8,1.7-1.7v-1.7
		c0-0.9-0.8-1.7-1.7-1.7h-6.6c-0.9,0-1.7,0.8-1.7,1.7v1.7C129.1,129,129.9,129.7,130.8,129.7L130.8,129.7z"/>
	<path fill-rule="evenodd" clip-rule="evenodd" fill="#623C1D" d="M143.1,129.7h6.6c0.9,0,1.7-0.8,1.7-1.7v-1.7
		c0-0.9-0.8-1.7-1.7-1.7h-6.6c-0.9,0-1.7,0.8-1.7,1.7v1.7C141.3,129,142.1,129.7,143.1,129.7L143.1,129.7z"/>
	<path fill="#623C1D" d="M149.2,96.3h18.5c1.8,0,3.5,0.8,4.6,2.1c1.2,1.3,1.9,3,1.9,5v11.6c0,1.9-0.7,3.7-1.9,5v0
		c-1.2,1.3-2.8,2.1-4.6,2.1h-18.5c-1.8,0-3.4-0.8-4.6-2.1l0,0c-1.2-1.3-1.9-3-1.9-5v-11.6c0-1.9,0.7-3.7,1.9-5h0
		C145.7,97.1,147.4,96.3,149.2,96.3L149.2,96.3z M167.7,102.2h-18.5c-0.3,0-0.6,0.1-0.8,0.4l0,0c-0.2,0.2-0.3,0.5-0.3,0.8v11.6
		c0,0.3,0.1,0.6,0.3,0.9l0,0c0.2,0.2,0.5,0.3,0.8,0.3h18.5c0.3,0,0.6-0.1,0.8-0.4l0,0c0.2-0.2,0.3-0.5,0.3-0.9v-11.6
		c0-0.3-0.1-0.6-0.3-0.8C168.3,102.3,168,102.2,167.7,102.2L167.7,102.2z"/>
</g>
<g id="Layer_2">
</g>
</svg>
