<?xml version="1.0" encoding="utf-8"?>
<!-- Generator: Adobe Illustrator 18.1.1, SVG Export Plug-In . SVG Version: 6.00 Build 0)  -->
<svg version="1.1" xmlns="http://www.w3.org/2000/svg" xmlns:xlink="http://www.w3.org/1999/xlink" x="0px" y="0px"
	 viewBox="0 0 280 280" enable-background="new 0 0 280 280" xml:space="preserve">
<g id="Layer_1">
	<path fill-rule="evenodd" clip-rule="evenodd" fill="#E8DED1" d="M139.5,36C196.7,36,243,82.3,243,139.5
		c0,57.2-46.3,103.5-103.5,103.5C82.3,243,36,196.7,36,139.5C36,82.3,82.3,36,139.5,36L139.5,36z"/>
	<path fill-rule="evenodd" clip-rule="evenodd" fill="#DCCCBE" d="M136.4,36.1v206.9C80.7,241.3,36,195.6,36,139.5
		C36,83.4,80.7,37.7,136.4,36.1L136.4,36.1z"/>
	<path fill-rule="evenodd" clip-rule="evenodd" fill="#996748" d="M150.3,166.8v-39.4H130v39.4l-45.3,13.2
		c-5.8,0.3-10.4,5.1-10.4,11v28.8c6.7,5.4,14,10,22,13.7l0-17.3h3.9v19c12.1,5,25.4,7.8,39.4,7.8c13.9,0,27.3-2.8,39.4-7.8v-19h3.9
		v17.3c7.9-3.6,15.3-8.3,22-13.7l0-28.8c0-5.8-4.6-10.6-10.4-11l-43.6-13.3H150.3L150.3,166.8z"/>
	<path fill-rule="evenodd" clip-rule="evenodd" fill="#996748" d="M113.8,57.3h52.6c5.6,0,10.2,4.6,10.2,10.2l0,74.6
		c0,5.6-4.6,10.2-10.2,10.2l-52.6,0c-5.6,0-10.2-4.6-10.2-10.2l0-74.6C103.7,61.9,108.2,57.3,113.8,57.3L113.8,57.3z"/>
	<path fill-rule="evenodd" clip-rule="evenodd" fill="#342F2A" d="M176.6,112.5v29.5c0,5.6-4.6,10.2-10.2,10.2l-52.6,0
		c-5.6,0-10.2-4.6-10.2-10.2l0-29.5h5.6v1.1c0,13.8,61.7,13.8,61.7,0v-1.1H176.6L176.6,112.5z M151.9,140.5c0,1.5-1.3,2.8-2.8,2.8
		l-18,0c-1.5,0-2.8-1.3-2.8-2.8C128.3,125.1,151.9,125.1,151.9,140.5L151.9,140.5z"/>
	<path fill-rule="evenodd" clip-rule="evenodd" fill="#342F2A" d="M121.7,111.6c2,0,3.6-1.6,3.6-3.6c0-2-1.6-3.6-3.6-3.6
		c-2,0-3.6,1.6-3.6,3.6C118.2,110,119.8,111.6,121.7,111.6L121.7,111.6z"/>
	<path fill-rule="evenodd" clip-rule="evenodd" fill="#342F2A" d="M158.5,111.6c2,0,3.6-1.6,3.6-3.6c0-2-1.6-3.6-3.6-3.6
		c-2,0-3.6,1.6-3.6,3.6C155,110,156.6,111.6,158.5,111.6L158.5,111.6z"/>
	<path fill-rule="evenodd" clip-rule="evenodd" fill="#07B29E" d="M204.7,219.9V191c0-5.8-4.6-10.6-10.4-11l-26.8-8.1l-27.2,25
		l-27.8-25l-28,8.1c-5.8,0.3-10.4,5.1-10.4,11v28.8c6.7,5.4,14,10,22,13.7l0-17.3h3.9v19c12.1,5,25.4,7.8,39.4,7.8
		c13.9,0,27.3-2.8,39.4-7.8v-19h3.9v17.3C190.7,229.9,198,225.3,204.7,219.9L204.7,219.9z"/>
	<polygon fill-rule="evenodd" clip-rule="evenodd" fill="#E8DED1" points="104.8,227.7 115,217.4 125.2,227.7 115,237.9 
		104.8,227.7 	"/>
	<polygon fill-rule="evenodd" clip-rule="evenodd" fill="#E74E3D" points="103.6,217.4 104.7,216.3 126.4,237.9 125.3,239 
		103.6,217.4 	"/>
	<path fill-rule="evenodd" clip-rule="evenodd" fill="#E74E3D" d="M104.6,237l20.7-20.7l1.1,1.1l-20.2,20.2
		C105.7,237.3,105.1,237.2,104.6,237L104.6,237z"/>
	<polygon fill-rule="evenodd" clip-rule="evenodd" fill="#E8DED1" points="153.8,227.7 164,217.4 174.2,227.7 164,237.9 
		153.8,227.7 	"/>
	<path fill-rule="evenodd" clip-rule="evenodd" fill="#E74E3D" d="M152.6,217.4l1.1-1.1l20.7,20.7c-0.5,0.2-1.1,0.4-1.6,0.6
		L152.6,217.4L152.6,217.4z"/>
	<polygon fill-rule="evenodd" clip-rule="evenodd" fill="#E74E3D" points="153.7,239 152.6,237.9 174.3,216.3 175.4,217.4 
		153.7,239 	"/>
	<polygon fill-rule="evenodd" clip-rule="evenodd" fill="#E8DED1" points="129.3,227.7 139.5,217.4 149.7,227.7 139.5,237.9 
		129.3,227.7 	"/>
	<polygon fill-rule="evenodd" clip-rule="evenodd" fill="#E74E3D" points="128.1,217.4 129.2,216.3 150.9,237.9 149.8,239 
		128.1,217.4 	"/>
	<polygon fill-rule="evenodd" clip-rule="evenodd" fill="#E74E3D" points="129.2,239 128.1,237.9 149.8,216.3 150.9,217.4 
		129.2,239 	"/>
</g>
<g id="Layer_2">
</g>
</svg>
