<?xml version="1.0" encoding="utf-8"?>
<!-- Generator: Adobe Illustrator 18.1.1, SVG Export Plug-In . SVG Version: 6.00 Build 0)  -->
<svg version="1.1" xmlns="http://www.w3.org/2000/svg" xmlns:xlink="http://www.w3.org/1999/xlink" x="0px" y="0px"
	 viewBox="0 0 280 280" enable-background="new 0 0 280 280" xml:space="preserve">
<g id="Layer_1">
	<path fill-rule="evenodd" clip-rule="evenodd" fill="#E8DED1" d="M139.5,36c56.9,0,103,46.1,103,103c0,56.9-46.1,103-103,103
		c-56.9,0-103-46.1-103-103C36.5,82.1,82.6,36,139.5,36L139.5,36z"/>
	<path fill-rule="evenodd" clip-rule="evenodd" fill="#DCCCBE" d="M136.7,36.1v207.6C80.8,242,36,196.2,36,139.9
		C36,83.6,80.8,37.7,136.7,36.1L136.7,36.1z"/>
	<path fill-rule="evenodd" clip-rule="evenodd" fill="#FFDEB2" d="M163.5,241l-2-14l8.3-2.1l2.5,13.6
		C169.3,239.5,166.4,240.3,163.5,241L163.5,241z"/>
	<path fill-rule="evenodd" clip-rule="evenodd" fill="#D58328" d="M122.6,72.9h30.7c38.2,0,45,60.3,45,86.6H76.6
		C76.6,133.2,84.4,72.9,122.6,72.9L122.6,72.9z"/>
	<path fill-rule="evenodd" clip-rule="evenodd" fill="#F7D19C" d="M110.4,239.5l2-14.2l-8-2.1l-2.4,13.3
		C104.7,237.7,107.6,238.6,110.4,239.5L110.4,239.5z"/>
	<path fill-rule="evenodd" clip-rule="evenodd" fill="#FFDEB2" d="M125.3,186.5l-2,20.1l12.2,37c0.3,0,0.7,0,1,0l15.6-18.4
		l-4.3-38.7H125.3L125.3,186.5z"/>
	<polygon fill-rule="evenodd" clip-rule="evenodd" fill="#F7D19C" points="124.8,186.5 122.2,221.4 133.7,237.7 136.5,237.7 
		136.5,186.5 124.8,186.5 	"/>
	<path fill-rule="evenodd" clip-rule="evenodd" fill="#FFDEB2" d="M122.4,83.8h30.1c14.8,0,26.8,12.1,26.8,26.8v55.3
		c0,14.8-12.1,26.8-26.8,26.8h-30.1c-14.8,0-26.8-12.1-26.8-26.8v-55.3C95.6,95.9,107.6,83.8,122.4,83.8L122.4,83.8z"/>
	<path fill-rule="evenodd" clip-rule="evenodd" fill="#FFDEB2" d="M122.4,83.8h14.2v108.9h-14.2c-14.8,0-26.8-12.1-26.8-26.8v-55.3
		C95.6,95.9,107.6,83.8,122.4,83.8L122.4,83.8z"/>
	<path fill-rule="evenodd" clip-rule="evenodd" fill="#F7D19C" d="M122.4,83.8h14.2v108.9h-14.2c-14.8,0-26.8-12.1-26.8-26.8v-55.3
		C95.6,95.9,107.6,83.8,122.4,83.8L122.4,83.8z"/>
	<path fill-rule="evenodd" clip-rule="evenodd" fill="#623C1D" d="M116.3,146c2.3,0,4.1-1.8,4.1-4.1s-1.8-4.1-4.1-4.1
		c-2.3,0-4.1,1.8-4.1,4.1S114.1,146,116.3,146L116.3,146z"/>
	<path fill-rule="evenodd" clip-rule="evenodd" fill="#623C1D" d="M158.6,146c2.3,0,4.1-1.8,4.1-4.1s-1.8-4.1-4.1-4.1
		c-2.3,0-4.1,1.8-4.1,4.1S156.3,146,158.6,146L158.6,146z"/>
	<path fill-rule="evenodd" clip-rule="evenodd" fill="#1A2E40" d="M175,237.6l-3.7-16.7l-20.3-11.1l-15.2,13.1l-13.3-13.1
		l-20.3,11.1l-2.5,14.8c12.3,5.2,25.9,8,40,8C152.2,243.7,164.1,241.5,175,237.6L175,237.6z"/>
	<path fill-rule="evenodd" clip-rule="evenodd" fill="#0D1B25" d="M136.6,243.7v-21l-14-12.8l-20.3,11.1l-3.1,14.6
		C110.7,240.4,123.3,243.2,136.6,243.7L136.6,243.7z"/>
	<path fill-rule="evenodd" clip-rule="evenodd" fill="#D58328" d="M106,82.6h62.9c6.7,0,12.1,4.2,12.2,9.3l0,56.4
		c-10.4,0-79.3-28.7-76.1-42.6l-10,21.3l-1.1-35.1C93.7,86.8,99.3,82.6,106,82.6L106,82.6z"/>
	<path fill-rule="evenodd" clip-rule="evenodd" fill="#E8DED1" d="M122.5,209.5c4.7,4.3,9.4,8.5,14.1,12.8
		c-10.1,8.8-13.4,4.5-23-7.2C116.5,213.2,119.5,211.4,122.5,209.5L122.5,209.5z"/>
	<path fill-rule="evenodd" clip-rule="evenodd" fill="#FAF2E6" d="M151.2,209.5c-4.9,4.3-9.7,8.5-14.6,12.8
		c10.5,8.8,13.9,4.5,23.9-7.2C157.4,213.2,154.3,211.4,151.2,209.5L151.2,209.5z"/>
</g>
<g id="Layer_2">
</g>
</svg>
